#N canvas 471 309 1022 597 10;
#N canvas 585 126 713 524 phasmod 0;
#X obj 152 285 phasor~;
#X floatatom 152 256 5 0 0 0 - - -, f 5;
#X floatatom 267 247 5 0 0 0 - - -, f 5;
#X obj 267 276 osc~;
#X obj 377 278 line~;
#X obj 377 253 pack 0 50;
#X obj 377 229 / 100;
#X floatatom 378 202 5 0 0 0 - - -, f 5;
#X obj 268 324 *~;
#X obj 152 359 +~;
#X obj 151 413 cos~;
#X obj 150 450 *~ 0.5;
#X obj 150 488 dac~;
#X text 152 212 Carrier;
#X text 465 271 Clicks;
#X text 154 232 Frequency;
#X text 263 223 Frequency;
#X text 261 204 Modulation;
#X text 371 151 Modulation Index;
#X text 368 171 in Hundredths;
#X text 466 252 to avoid;
#X text 379 479 Johannes Kreidler;
#X obj 141 167 inlet;
#X obj 277 167 inlet;
#X obj 489 185 inlet;
#X connect 0 0 9 0;
#X connect 1 0 0 0;
#X connect 2 0 3 0;
#X connect 3 0 8 0;
#X connect 4 0 8 1;
#X connect 5 0 4 0;
#X connect 6 0 5 0;
#X connect 7 0 6 0;
#X connect 8 0 9 1;
#X connect 9 0 10 0;
#X connect 10 0 11 0;
#X connect 11 0 12 0;
#X connect 11 0 12 1;
#X connect 22 0 1 0;
#X connect 23 0 2 0;
#X connect 24 0 7 0;
#X restore 395 325 pd phasmod;
#N canvas 0 50 450 250 (subpatch) 0;
#X array array1 10 float 1;
#A 0 2.92857 3.5 6.14286 7.42856 6.21428 6.71428 5.92856 7.35713 6.21429
5;
#X coords 0 0 10 10 200 140 1;
#X restore 67 176 graph;
#X msg 51 65 \; array1 bounds 0 0 10 10 \; array1 0 9 5 1 5 6 5 0 5
8 5 5;
#X obj 363 237 tabread array1;
#X obj 77 122 tabwrite array1;
#X floatatom 363 259 5 0 0 0 - - -, f 5;
#X obj 382 196 bng 15 250 50 0 empty empty empty 17 7 0 10 -262144
-1 -1;
#X floatatom 419 195 5 0 13 0 - - -, f 5;
#X obj 422 112 bng 15 250 50 0 empty empty empty 17 7 0 10 -262144
-1 -1;
#X obj 422 134 float;
#X obj 475 134 +;
#X obj 415 39 tgl 15 0 empty empty empty 17 7 0 10 -262144 -1 -1 1
1;
#X floatatom 492 95 5 0 0 0 - - -, f 5;
#X obj 422 156 mod 13;
#X floatatom 443 260 5 0 0 0 - - -, f 5;
#X obj 363 278 *;
#X obj 415 70 metro 65;
#N canvas 0 50 450 250 (subpatch) 0;
#X array array2 10 float 1;
#A 0 3.14286 3.42857 1 8.21428 2.78571 4.07143 4.42857 2 5 5;
#X coords 0 0 10 10 200 140 1;
#X restore 79 445 graph;
#X obj 89 391 tabwrite array2;
#X floatatom 521 264 5 0 0 0 - - -, f 5;
#X obj 540 201 bng 15 250 50 0 empty empty empty 17 7 0 10 -262144
-1 -1;
#X floatatom 577 200 5 0 13 0 - - -, f 5;
#X obj 580 117 bng 15 250 50 0 empty empty empty 17 7 0 10 -262144
-1 -1;
#X obj 580 139 float;
#X obj 633 139 +;
#X obj 573 44 tgl 15 0 empty empty empty 17 7 0 10 -262144 -1 -1 1
1;
#X floatatom 650 100 5 0 0 0 - - -, f 5;
#X obj 580 161 mod 13;
#X floatatom 601 265 5 0 0 0 - - -, f 5;
#X obj 521 283 *;
#X obj 573 75 metro 65;
#X obj 521 242 tabread array2;
#N canvas 0 50 450 250 (subpatch) 0;
#X array array3 10 float 1;
#A 0 4.57143 5.78571 6.64286 5 3.21429 6.57143 1 7 3 7;
#X coords 0 0 10 10 200 140 1;
#X restore 366 473 graph;
#X obj 376 419 tabwrite array3;
#X msg 350 362 \; array3 bounds 0 0 10 10 \; array3 9 7 1 7 3 7 0 8
2 2;
#X floatatom 681 270 5 0 0 0 - - -, f 5;
#X obj 700 207 bng 15 250 50 0 empty empty empty 17 7 0 10 -262144
-1 -1;
#X floatatom 737 206 5 0 13 0 - - -, f 5;
#X obj 740 123 bng 15 250 50 0 empty empty empty 17 7 0 10 -262144
-1 -1;
#X obj 740 145 float;
#X obj 793 145 +;
#X obj 733 50 tgl 15 0 empty empty empty 17 7 0 10 -262144 -1 -1 1
1;
#X floatatom 810 106 5 0 0 0 - - -, f 5;
#X obj 740 167 mod 13;
#X floatatom 761 271 5 0 0 0 - - -, f 5;
#X obj 681 289 *;
#X obj 733 81 metro 65;
#X obj 681 248 tabread array3;
#X msg 63 334 \; array2 bounds 0 0 10 10 \; array2 0 4 15 1 5 3 5 0
2 5 5;
#X obj 622 -125 vsl 15 128 0 500 0 0 empty empty metro 0 -9 0 10 -257985
-1 -260097 4700 1;
#X connect 2 0 4 0;
#X connect 3 0 5 0;
#X connect 5 0 15 0;
#X connect 6 0 3 0;
#X connect 7 0 3 0;
#X connect 8 0 9 0;
#X connect 9 0 10 0;
#X connect 9 0 13 0;
#X connect 10 0 9 1;
#X connect 11 0 16 0;
#X connect 12 0 10 1;
#X connect 13 0 7 0;
#X connect 14 0 15 1;
#X connect 15 0 0 0;
#X connect 16 0 8 0;
#X connect 19 0 29 0;
#X connect 20 0 31 0;
#X connect 21 0 31 0;
#X connect 22 0 23 0;
#X connect 23 0 24 0;
#X connect 23 0 27 0;
#X connect 24 0 23 1;
#X connect 25 0 30 0;
#X connect 26 0 24 1;
#X connect 27 0 21 0;
#X connect 28 0 29 1;
#X connect 29 0 0 1;
#X connect 30 0 22 0;
#X connect 31 0 19 0;
#X connect 34 0 33 0;
#X connect 35 0 45 0;
#X connect 36 0 47 0;
#X connect 37 0 47 0;
#X connect 38 0 39 0;
#X connect 39 0 40 0;
#X connect 39 0 43 0;
#X connect 40 0 39 1;
#X connect 41 0 46 0;
#X connect 42 0 40 1;
#X connect 43 0 37 0;
#X connect 44 0 45 1;
#X connect 45 0 0 2;
#X connect 46 0 38 0;
#X connect 47 0 35 0;
#X connect 48 0 18 0;
#X connect 49 0 16 1;
#X connect 49 0 30 1;
#X connect 49 0 46 1;
